<svg id="Layer_1" data-name="Layer 1" xmlns="http://www.w3.org/2000/svg" viewBox="0 0 864.82 216.81"><defs><style>.cls-1{fill:#49c4de;}.cls-2{fill:#fff;}.cls-3{fill:#f6f7fa;}</style></defs><path class="cls-1" d="M527.08,568c3.4-3.18,4.32-8,7.75-11.25,10.28-9.72,21.32-18.54,32-27.76,13-11.17,26-22.22,39-33.38,8.77-7.54,16.08-7.73,25-.31q23.71,19.83,47.34,39.78c.86.72,2.24,1.28,1.56,2.69s-2.2,1.22-3.52,1.4c-18,2.53-35,8.23-49.91,18.77-28.4,20.07-39.49,48-36.45,82.19.21,2.33,1.53,4.94-.77,7-2.49,0-5-.29-7.45-.11-5.85.43-11.8-1.16-17.56.86h-15c-1.14-1.8-3-1-4.51-1.09-6.75-.47-11.94-3.35-15.34-9.31a18,18,0,0,0-2.15-2.59Z" transform="translate(-527.08 -431.1)"/><path class="cls-2" d="M620.06,431.1c28.15,25.1,58.09,48,86.92,72.32,2.36,2,5.85,3.76,5.86,7.09,0,5.77,1.23,11.69-.59,17.34-1.25,3.87-4.16,4.37-7.86,1.35-10.95-9-21.75-18.06-32.65-27.07-16-13.24-32.16-26.35-48.08-39.72-4-3.34-6.94-3.22-10.81.15-25.2,22-50.56,43.73-75.82,65.63-3.19,2.77-6,4.37-9-.15-.57-6.33,1.15-12.77-1-19v-1c21.3-18.09,42.68-36.08,63.85-54.31,8.54-7.35,17.45-14.31,25.14-22.62Z" transform="translate(-527.08 -431.1)"/><path class="cls-2" d="M1391.9,504c-5.31,6.41-8.78,14-13.16,21-2.91,4.64-5.52,9.47-8.51,14.06-3.4,5.19-2.11,10.95-2.38,16.5-.48,9.63-2.67,11.34-12.15,9.39-1.49-.31-2-.86-2-2.24,0-.5,0-1,0-1.49,2-13-2.47-23.88-9.72-34.36-5-7.19-8.81-15.18-13.16-22.82,4.57-2.17,9.44-.47,14.13-1.07l16.36,26.46c4.21-7,8.67-13.37,12.13-20.3,2.74-5.5,6.24-8.2,12.41-7.29a51.5,51.5,0,0,0,6,.18Z" transform="translate(-527.08 -431.1)"/><path class="cls-3" d="M564.08,647.91c5.76-2,11.71-.43,17.56-.86,2.47-.18,5,.06,7.45.11,0,.25,0,.5,0,.75Z" transform="translate(-527.08 -431.1)"/><path class="cls-2" d="M626.24,646.76c-2.49,0-5,0-7.49,0-7,0-7.13,0-7.45-7.07-1.88-41.24,27.19-75.23,63.71-79.84,11-1.39,21.54.21,32.23,1.39,3.74.41,6.18,2.28,5.77,7a127.16,127.16,0,0,0,0,17.46c.21,4.14-1.12,5-4.84,3.54-8.63-3.4-17.51-5.06-26.83-3.67-26,3.89-42.69,24.87-40.54,51,.84,10.17.84,10.17-9.52,10.17Z" transform="translate(-527.08 -431.1)"/><path class="cls-2" d="M1215.75,528.89a144.67,144.67,0,0,0-1.34,28.58c.09,2.5,1.39,6.4-1.68,7-3.87.77-8.25,1.88-12.2-.1-1.67-.83-1.48-2.83-1.47-4.5.14-18.11.34-36.22.36-54.32,0-2.67.9-3.26,3.36-3.6,5.94-.83,10.2.64,14,5.82,7.3,9.89,15.44,19.16,23.27,28.65.68.81,1.14,2,3,2.17,0-10.81.18-21.54-.1-32.26-.09-3.47.75-4.57,4.26-4.49,12.1.27,9.67-.89,9.78,9.77.17,16.13,0,32.26.13,48.39,0,3.75-.75,5.12-5,5.18-4.81.06-7.91-1.27-10.9-5.12C1233,549.48,1224.29,539.26,1215.75,528.89Z" transform="translate(-527.08 -431.1)"/><path class="cls-2" d="M1144.79,566c-8.46-.31-16.93-2.64-23.84-9.17-10.57-10-12.1-22.1-7.61-35.22,4.91-14.35,16.61-19.6,30.47-21,14.63-1.47,28.85,7.69,33.94,21.23,5.27,14,1.08,28.78-10.7,37.33C1160.66,563.86,1153.41,565.91,1144.79,566ZM1165,533.82c-.06-12.32-7.92-20.77-19.34-20.78s-19.59,8.59-19.48,20.64c.11,11.82,8.2,20.32,19.35,20.31S1165,545.28,1165,533.82Z" transform="translate(-527.08 -431.1)"/><path class="cls-2" d="M918.56,502.66c9.63,1.22,17.39,7.18,19.33,14.84,2.83,11.17.3,19.23-8.56,25.34-3,2-2.62,3.4-.74,5.84a97.72,97.72,0,0,1,10.32,15.67,4.67,4.67,0,0,1-1.06.59c-9.51,1.75-16.81-.67-20.9-10.3-2.58-6.06-7.59-8-14.12-7-3,.45-4.26,1.64-3.89,4.46a20.67,20.67,0,0,1-.05,6.93c-.4,1.93,1.42,4.48-1.43,5.72-3.64,1.59-10.46.26-12.68-2.34.09-18.24.26-36.47.18-54.71,0-3.69,1-4.87,4.77-4.81C899.34,503,909,502.75,918.56,502.66Zm-10.62,33.18a21.78,21.78,0,0,0,8.75-.92c5.12-1.92,7.75-5.77,7.45-11-.28-4.9-3.27-8.44-8.53-9.61a34.7,34.7,0,0,0-7.41-.67c-10.82,0-9.05-.73-9.19,8.82,0,1.66,0,3.31,0,5C899,535.83,899,535.83,907.94,535.84Z" transform="translate(-527.08 -431.1)"/><path class="cls-2" d="M1033.26,533.69c0-9,0-18,0-27,0-3.27.7-5.5,4.7-5,1.28.16,2.63-.35,4-.4,5.4-.22,7.51,1.73,6.85,7.13-.58,4.82-.48,9.62-.66,14.43-.09,2.44.6,3.86,3.21,3.87,7.66,0,15.32,0,23,.08,2.83,0,2.59-2,2.56-3.83-.07-5.65,0-11.31-.31-16.95-.14-2.94.69-4.11,3.84-4.25,11-.5,10.74-.62,10.61,10.2q-.3,23.73,0,47.45c.06,4.17-.71,6.47-5.43,5.6a11.67,11.67,0,0,0-3,.17c-5.36.4-7.16-1.2-6.33-6.54s.4-10.62.6-15.93c.1-2.7-.86-3.79-3.8-3.69-6.66.24-13.33.23-20,0-3.4-.1-4.67.92-4.6,4.48.13,6.14-.25,12.29-.43,18.44,0,1.27.46,2.9-1.62,2.94-3.66.06-7.33.14-11,0-2.85-.14-2.11-2.7-2.14-4.24-.14-9-.07-18-.07-27Z" transform="translate(-527.08 -431.1)"/><path class="cls-2" d="M798.54,564.7c9-20.18,17.79-39.67,26.39-59.23,1.11-2.53,2.59-3.6,5.24-3.49a56.05,56.05,0,0,0,7,0c3-.26,4.61,1.17,5.73,3.69q12.25,27.75,24.55,55.5c1.13,2.53,1.11,4.17-2.37,3.84a27,27,0,0,0-3.48,0c-8.17.28-8.59.3-11.08-7.48-1.43-4.47-3.69-5.88-8.26-5.59-6.63.43-13.3.15-20,.09-2.14,0-4,.07-4.5,2.72-1.64,9.65-8,11.7-16.52,10.19C800.63,564.88,800,564.85,798.54,564.7Zm35-47.87-9.76,23.7c6,0,11,0,15.92,0,2.59,0,3.66-1,2.44-3.75C839.34,530.58,836.72,524.32,833.5,516.83Z" transform="translate(-527.08 -431.1)"/><path class="cls-2" d="M712.16,635.11c-2,7.08-6.8,11.39-13.79,11.56-10.64.25-21.3.06-32,.09-2.23,0-3.68-.62-4.37-3.07-3.37-11.83,1.91-25.38,13.05-33.11,9.66-6.69,26-6.65,34.86.09,1,.8,2.25,1.51,2.19,3.09Q712.16,624.44,712.16,635.11Z" transform="translate(-527.08 -431.1)"/><path class="cls-2" d="M954.84,533.51c-.1-13.3,6.32-22.81,17.52-29.22,10.14-5.8,29.75-3.66,39,3.55,3.34,2.62,3.64,4.7.23,7.27a15.74,15.74,0,0,0-2.92,2.72c-2,2.64-3.69,2.12-6.1.13-8.52-7-20.41-6.36-27.52,1.27-6.79,7.28-6.88,21.08-.18,28.44,7.12,7.82,18.65,8.51,27.49,1.64,3.79-2.94,6.29-2,10.77,4.23,2.82,3.9-.81,5-3,6.25-10.35,6-21.25,8.46-33,4.45C962.66,559.3,955,548.72,954.84,533.51Z" transform="translate(-527.08 -431.1)"/><path class="cls-2" d="M1282.05,564.56c-1.6-.85-.93-2.33-.93-3.57,0-18.13,0-36.26-.14-54.4,0-3.33.79-4.68,4.5-4.6,10.62.25,10.63.08,10.63,10.78,0,11.64.13,23.29-.08,34.93-.07,4.32,1.37,6,5.77,5.79,6.65-.28,13.32.13,20-.14,4.66-.2,6.69,1.34,5.4,6.06-.48,1.77,1,4-1.32,5.34C1311.25,563.34,1296.65,563.73,1282.05,564.56Z" transform="translate(-527.08 -431.1)"/><path class="cls-2" d="M1093.26,618.9c-.13,8.85-6.38,14.77-15.48,14.66a14.94,14.94,0,0,1-14.71-14.64c0-8.4,5.9-13.18,16-13C1088.25,606,1093.38,610.74,1093.26,618.9Zm-26.57,0c0,6.46,5,11.41,11.77,11.54A11.5,11.5,0,0,0,1090,618.62c0-5.68-5.43-10.68-11.57-10.76C1072.13,607.78,1066.73,612.84,1066.69,618.86Z" transform="translate(-527.08 -431.1)"/><path class="cls-2" d="M965.08,618a1.39,1.39,0,0,1,0-.5c1.66-4.07-4.38-11.4,4-12.35,14.19-1.6,21.72,2.78,22.82,11.73,1,8.55-3.64,14.71-12.33,16.21-13.59,2.34-14.51,1.58-14.53-12.1v-3Zm2.93.23c.11,3.29-.34,6.64.63,9.86.33,1.12.28,2.25,2,2.89,7.62,2.8,17.73-3.88,17.67-11.94,0-5.68-3.44-9.36-10.5-11.38-7.32-2.09-9.82-.28-9.83,7.09C968,615.91,968,617.07,968,618.23Z" transform="translate(-527.08 -431.1)"/><path class="cls-2" d="M928.9,615.92c0,2.17.11,4.34,0,6.49-.43,6.75-4.91,11-11.66,11.16a11.32,11.32,0,0,1-11.91-10.86c-.36-5-.2-10-.23-15,0-1.14-.15-2.61,1.44-2.72s2.27,1.14,2.3,2.64c.08,4.83.07,9.65.21,14.47.15,5.54,3,8.4,8.31,8.41,4.72,0,7.74-3.07,8-8.33.14-3.48-.18-7,.13-10.47.17-2-1.62-5.58,1.94-5.57,3.21,0,1.23,3.41,1.61,5.26a21.6,21.6,0,0,1,.06,4.48Z" transform="translate(-527.08 -431.1)"/><path class="cls-2" d="M812.33,605.66a49,49,0,0,1,5.44.38c1.13.19,2.31.91,1.77,2.42s-1.62,1.46-2.86.83a10.91,10.91,0,0,0-8.21-1.06c-2,.58-3.79,1.58-4,3.91-.23,2.12,1.28,3.28,2.87,4.28,2.46,1.55,5.29,1.88,8,2.63,3.1.85,6.13,2.22,6.31,6.12s-2.43,6.12-5.63,7.44c-4.63,1.91-9.15.87-13.5-1.2-1.08-.51-2.25-1.18-1.59-2.61.82-1.79,1.89-.42,2.83,0A15.19,15.19,0,0,0,813.93,630c2.17-.53,3.67-1.61,4-3.86.35-2.54-1.43-3.49-3.44-4.16-2.68-.9-5.32-2-8.06-2.63-4.42-1.06-6-3.8-5.4-8.08s3.79-5,7.31-5.26c1.33-.09,2.66-.12,4-.18Z" transform="translate(-527.08 -431.1)"/><path class="cls-2" d="M860.36,632.92c0-7.22-.16-13.81.06-20.39.12-3.7-1.07-5.33-4.87-4.6a9,9,0,0,1-2.48.08c-1.1-.1-1.92-.68-1.83-1.89s1-1.19,1.86-1.19q9.23,0,18.46,0c.84,0,1.92.14,1.76,1.18-.09.6-1,1.3-1.69,1.56-2.25.88-5.47-.88-6.93,1.69-1.59,2.8-.48,6.19-.61,9.32s-.05,6,0,9C864.08,629.81,863.47,631.58,860.36,632.92Z" transform="translate(-527.08 -431.1)"/><path class="cls-2" d="M1026.12,618.49c0-3.48,0-7,0-10.44,0-1.23-.12-2.42,1.59-2.42,1.45,0,2,.88,2,2.24q0,11.68,0,23.37c0,1-.39,2.09-1.61,2.11-1.52,0-1.87-1.21-1.88-2.42,0-4.15,0-8.29,0-12.43Z" transform="translate(-527.08 -431.1)"/><path class="cls-2" d="M1282.05,564.56c14.6-.83,29.2-1.22,43.8.19C1311.25,565.1,1296.65,565.32,1282.05,564.56Z" transform="translate(-527.08 -431.1)"/><path class="cls-2" d="M1345,503c-4.69.6-9.56-1.1-14.13,1.07-1-.85-1.1-1.87.35-1.91C1335.86,502,1340.56,500.87,1345,503Z" transform="translate(-527.08 -431.1)"/></svg>